# xmcd CD database file
#
# Track frame offsets:
#	150
#	13075
#	29664
#	39315
#	48670
#	70703
#	87777
#	105522
#	119251
#	158612
#	177095
#	188619
#	213299
#	229822
#	246736
#	261127
#	283365
#	301249
#
# Disc length: 4358 seconds
#
# Revision: 0
# Processed by: cddbd v1.5.2PL0 Copyright (c) Steve Scherf et al.
# Submitted via: CDex 1.51
#
DISCID=f6110412
DTITLE=Nils Landgren - Christmas With My Friends
DYEAR=2007
DGENRE=Jazz
TTITLE0=Maybe This Christmas
TTITLE1=Ave Maris Stella
TTITLE2=Bereden väg för Herran
TTITLE3=Jul Jul Strålande Jul
TTITLE4=When You Wish Upon A Star
TTITLE5=Christmas Song
TTITLE6=Aria: Lascia ch'io pianga
TTITLE7=Nu tändas tusen juleljus
TTITLE8=In Dulce Jubilo/Det kimer nå til julefest
TTITLE9=Gläns över sjö och strand
TTITLE10=Det Strålar en stjärna
TTITLE11=Es ist ein Ros entsprungen
TTITLE12=White Christmas
TTITLE13=What Child Is This?
TTITLE14=När Juldagsmorgon glimmar
TTITLE15=Have Yourself A Merry Little Christmas
TTITLE16=Till Bethlehem
TTITLE17=Stille Nacht, heilige Nacht
EXTD=YEAR: 2007
EXTT0=
EXTT1=
EXTT2=
EXTT3=
EXTT4=
EXTT5=
EXTT6=
EXTT7=
EXTT8=
EXTT9=
EXTT10=
EXTT11=
EXTT12=
EXTT13=
EXTT14=
EXTT15=
EXTT16=
EXTT17=
PLAYORDER=
